Coordinates
version=1
nRows=17
nColumns=24
inDegrees=yes

Units are S.I. units (second, meters, Newtons, ...)
Angles are in degrees.

endheader
time	pelvis_tilt	pelvis_list	pelvis_rotation	pelvis_tx	pelvis_ty	pelvis_tz	hip_flexion_r	hip_adduction_r	hip_rotation_r	knee_angle_r	ankle_angle_r	subtalar_angle_r	mtp_angle_r	hip_flexion_l	hip_adduction_l	hip_rotation_l	knee_angle_l	ankle_angle_l	subtalar_angle_l	mtp_angle_l	lumbar_extension	lumbar_bending	lumbar_rotation
      3.63500000	    -13.22017796	      3.72891537	     -3.95680753	     -0.88864530	     -0.06383586	      0.45956856	     19.06941000	     -7.38631877	     -3.03761499	    -65.43953295	    -30.40939351	     10.69594651	     23.17109510	     40.13154984	      8.39940733	      3.80341344	    -36.96101242	      2.91591136	     13.00291757	     14.13543586	     13.78065392	     -3.27205755	      5.56949576
      3.64000000	    -13.13279316	      3.87943767	     -3.64649904	     -0.88093393	     -0.06259691	      0.45897398	     20.01611369	     -7.56385785	     -3.13908148	    -66.31426717	    -29.38292045	     10.09347782	     23.73024012	     39.29899195	      8.79221856	      3.95493665	    -36.63255355	      3.46361540	     13.17794268	     14.18340352	     13.67209908	     -3.51453431	      5.19115632
      3.64500000	    -12.90741297	      3.98772472	     -3.29326548	     -0.87305254	     -0.06107113	      0.45817902	     20.73790959	     -7.73123458	     -3.24602059	    -66.98717256	    -28.35869686	      9.83257099	     24.78516107	     38.25467318	      9.23144271	      4.28699161	    -36.27144942	      4.07765697	     13.22565860	     13.69421237	     13.42551321	     -3.70719757	      4.69353060
      3.65000000	    -12.80367040	      4.09489541	     -3.00360291	     -0.86526724	     -0.05967639	      0.45760419	     21.64628439	     -7.85215093	     -3.34391806	    -67.65570714	    -27.36286700	      9.33405340	     25.31443972	     37.34930190	      9.57324376	      4.52027335	    -35.87589429	      4.56504441	     13.34542555	     13.66339204	     13.31464632	     -3.88943341	      4.34336265
      3.65500000	    -12.53120472	      4.12641742	     -2.65467714	     -0.85730975	     -0.05795052	      0.45681168	     22.27413104	     -7.93096832	     -3.46985389	    -68.11179075	    -26.31330410	      9.23005415	     26.22724597	     36.19425185	      9.94002097	      4.97190385	    -35.44188931	      5.07266862	     13.28936947	     13.16163649	     13.02589272	     -3.98919659	      3.83030116
      3.66000000	    -12.30375719	      4.15684562	     -2.35632290	     -0.84938687	     -0.05626778	      0.45614887	     22.97286222	     -7.98269698	     -3.58222429	    -68.51003513	    -25.33224578	      8.99361795	     26.95969873	     35.08229964	     10.24523599	      5.37720048	    -34.98765634	      5.56398357	     13.28781373	     12.75366020	     12.79362352	     -4.07957461	      3.41779361
      3.66500000	    -12.12360423	      4.17439146	     -2.05399836	     -0.84141938	     -0.05459742	      0.45551965	     23.71119838	     -8.01072482	     -3.70090461	    -68.82915658	    -24.37624618	      8.76592342	     27.49882342	     33.99424690	     10.52372288	      5.82903259	    -34.48379512	      5.97202535	     13.28629424	     12.49653344	     12.62583022	     -4.15666930	      2.96556503
      3.67000000	    -11.84849858	      4.10694194	     -1.74382232	     -0.83346991	     -0.05281203	      0.45479762	     24.30165048	     -7.97248671	     -3.87547741	    -69.02012905	    -23.36360742	      8.66691209	     28.09335811	     32.78921032	     10.74752619	      6.37859964	    -33.98406025	      6.35991254	     13.11139237	     12.07829400	     12.34056012	     -4.13138170	      2.54389248
      3.67500000	    -11.63087537	      4.06330958	     -1.42561238	     -0.82543726	     -0.05105300	      0.45413033	     24.94133908	     -7.95029598	     -4.04626449	    -69.13197001	    -22.41966831	      8.52826278	     28.54735043	     31.61067131	     10.96827291	      6.94884912	    -33.41824744	      6.69749554	     13.01218666	     11.76535356	     12.14403275	     -4.14158993	      2.06968273
      3.68000000	    -11.37590307	      3.96191187	     -1.09974996	     -0.81743855	     -0.04926129	      0.45342961	     25.51011636	     -7.88006411	     -4.26071638	    -69.14082571	    -21.46005920	      8.44632348	     28.96306515	     30.37960996	     11.13797163	      7.59639304	    -32.84241178	      6.99995063	     12.80699775	     11.40790215	     11.89569093	     -4.08442387	      1.60689516
      3.68500000	    -11.11467299	      3.84095873	     -0.77747814	     -0.80943750	     -0.04746829	      0.45273907	     26.05128746	     -7.78802080	     -4.48532518	    -69.05940874	    -20.51921967	      8.37233896	     29.31053496	     29.12583104	     11.27129723	      8.26983287	    -32.23946311	      7.26643736	     12.56945215	     11.04268273	     11.64400287	     -4.00370444	      1.13507109
      3.69000000	    -10.82053712	      3.70003966	     -0.46501984	     -0.80147983	     -0.04568069	      0.45203099	     26.54054336	     -7.67340247	     -4.71183401	    -68.89475902	    -19.57777731	      8.31796275	     29.59190528	     27.82836725	     11.37120618	      8.95878101	    -31.61940193	      7.51595336	     12.25652042	     10.63353969	     11.34450656	     -3.89134994	      0.64992962
      3.69500000	    -10.57791569	      3.54078311	     -0.10486006	     -0.79346136	     -0.04393149	      0.45132449	     27.04519735	     -7.56036638	     -4.99787242	    -68.63138433	    -18.68814333	      8.26081326	     29.78992333	     26.56061194	     11.44373848	      9.71663553	    -30.95814960	      7.71691072	     12.00627448	     10.28930178	     11.12343571	     -3.77899523	      0.13615226
      3.70000000	    -10.30968362	      3.36416800	      0.25136274	     -0.78549347	     -0.04220950	      0.45060902	     27.50507820	     -7.43237148	     -5.29431283	    -68.28967879	    -17.80733114	      8.22040258	     29.91670834	     25.25871949	     11.48170658	     10.49062247	    -30.27627507	      7.89227215	     11.68167984	      9.92663345	     10.86366218	     -3.64127112	     -0.39652459
      3.70500000	    -10.04313111	      3.17985060	      0.61674264	     -0.77754850	     -0.04053413	      0.44989663	     27.94479087	     -7.30303162	     -5.60810126	    -67.86754084	    -16.95180946	      8.18175710	     29.97030494	     23.95075542	     11.49039457	     11.27800844	    -29.57099155	      8.04155392	     11.35263507	      9.57471674	     10.60433770	     -3.49708268	     -0.93828801
      3.71000000	     -9.77807367	      2.98565860	      0.99482166	     -0.76962704	     -0.03891372	      0.44917872	     28.36290487	     -7.17385823	     -5.94459876	    -67.36676038	    -16.12716536	      8.14743476	     29.95421418	     22.63745857	     11.46805461	     12.07935206	    -28.84346782	      8.17252223	     11.01838728	      9.23164708	     10.34642668	     -3.34439677	     -1.49609349
      3.71500000	     -9.48025241	      2.81432872	      1.35871429	     -0.76175204	     -0.03735041	      0.44847679	     28.73634889	     -7.06475498	     -6.26412064	    -66.80837216	    -15.30380581	      8.11906659	     29.83222566	     21.28475033	     11.43859099	     12.84460663	    -28.08917186	      8.28511065	     10.63606634	      8.86965108	     10.03996492	     -3.20926181	     -2.09258534
